<svg width="300" height="300" viewBox="0 0 300 300" fill="none" xmlns="http://www.w3.org/2000/svg">
<path d="M25.5365 0H274.457C275.345 0.624388 276.177 0.46491 277.21 0.6832C289.645 3.31228 298.04 13.2568 300 25.566V275.117C298.048 283.635 294.343 290.843 286.698 295.443C284.105 297.003 281.89 298.005 279.003 299.01C278.228 299.278 276.445 299.745 275.885 300H23.8335C20.5858 298.58 17.5672 298.045 14.301 295.98C4.95927 290.068 2.59547 284.577 0 274.62V25.3525C0.184148 24.8633 0.647842 22.3457 0.94711 21.3428C3.52775 12.3618 9.6697 5.40573 18.3421 1.88253C19.9088 1.24608 24.6562 0.536658 25.5365 0Z" fill="#3178C6"/>
<path d="M229.727 139.601C231.654 139.348 235.471 139.508 237.531 139.448C245.817 139.207 254.277 140.383 262.342 142.232C264.617 142.754 267.198 143.759 269.535 144.432L269.522 171.899C260.667 166.106 250.325 162.998 239.744 162.951C232.651 162.877 224.921 163.477 219.444 168.701C217.591 170.468 216.148 173.752 216.25 176.292C216.744 188.677 239.26 194.46 248.305 199.35C254.547 202.396 260.15 205.781 265.217 210.585C278.96 223.609 278.912 248.98 265.527 262.228C254.6 273.045 236.213 275.545 221.348 275.525C218.105 275.562 215.189 275.173 212.003 274.848C202.079 273.835 194.562 272.212 185.518 267.927C185.742 260.665 185.463 253.28 185.587 246.008C185.629 243.514 185.617 240.908 185.501 238.421C185.891 238.792 186.288 239.123 186.704 239.464C198.039 248.711 212.56 253.122 227.123 251.745C235.042 250.955 245.601 246.894 244.082 237.389C242.155 225.335 220.924 219.074 211.299 214.517C207.175 212.588 203.268 210.227 199.641 207.475C192.051 201.61 186.887 194.037 185.619 184.392C183.62 169.201 188.623 155.908 202.01 147.758C210.823 142.393 219.621 140.871 229.727 139.601Z" fill="#FEFEFE"/>
<path d="M69.042 142.298C80.9317 142.127 93.2233 142.274 105.147 142.273L173.993 142.272L173.99 166.528L136.516 166.301L136.518 273.52L106.503 273.508L106.507 166.325C94.137 166.463 81.428 166.363 69.046 166.297C69.3165 159.006 69.1772 149.645 69.042 142.298Z" fill="#FEFEFE"/>
</svg>
